<svg version="1.1" id="Layer_1" xmlns="http://www.w3.org/2000/svg" xmlns:xlink="http://www.w3.org/1999/xlink" x="0px" y="0px"
	 viewBox="0 0 100 100" style="enable-background:new 0 0 100 100;" xml:space="preserve">
<style type="text/css">
	.st0{fill-rule:evenodd;clip-rule:evenodd;fill:#FFFFFF;stroke:#FFFFFF;stroke-miterlimit:10;}
	.st1{fill:#3C3A74;}
	.st2{fill-rule:evenodd;clip-rule:evenodd;fill:#524FA1;}
	.st3{fill:none;stroke:#FFFFFF;stroke-width:2;}
	.st4{fill-rule:evenodd;clip-rule:evenodd;fill:#FFCC33;}
	.st5{fill-rule:evenodd;clip-rule:evenodd;fill:#FBC0C6;}
	.st6{fill-rule:evenodd;clip-rule:evenodd;fill:#FFFFFF;}
	.st7{fill-rule:evenodd;clip-rule:evenodd;fill:#FD9399;}
	.st8{fill-rule:evenodd;clip-rule:evenodd;fill:#FD636C;}
</style>
<path class="st0" d="M50,6.2l-1.3,1l-24,19.1l-1,0.8l1.3,0.7l2.1,1.1l1.3,0.7l1-0.8l20.7-16.5L71,28.4l1.1,0.8l1.3-0.7l2-1.1
	l1.3-0.7l-1.1-0.8L51.3,7.2L50,6.2z M50,7.9l24.3,18.7l-2,1.1L50,10.6l-22,17.5L26,27L50,7.9z"/>
<path class="st0" d="M26.2,23.4L24.4,26L8.8,48l-0.6,0.9l0.9,0.6l1.5,1l0.9,0.6l0.6-0.9L24.9,33l1.5-6.5L26.2,23.4z M25.3,26.6
	L24,31.7L11.3,49.6l-1.5-1L25.3,26.6z"/>
<path class="st0" d="M72.7,24.1l-0.3,3.1l1.4,6.4l12.7,17.3l0.6,0.9l0.9-0.6l1.5-1l0.9-0.6L90,48.6l-15.5-22L72.7,24.1z M73.5,27.2
	l15.5,22l-1.5,1L74.9,32.3L73.5,27.2z"/>
<path class="st1" d="M72.2,27.7l2-1.1L50,7.9L26,27l2.1,1.1l22-17.5L72.2,27.7z"/>
<path class="st1" d="M24,31.7l1.4-5.1l-15.5,22l1.5,1L24,31.7z"/>
<path class="st2" d="M56.5,10.1c0,3.4-2.9,6.1-6.5,6.1c-3.6,0-6.5-2.7-6.5-6.1c0-3.4,2.9-6.1,6.5-6.1C53.6,4,56.5,6.7,56.5,10.1"/>
<path class="st3" d="M56.5,10.1c0,3.4-2.9,6.1-6.5,6.1c-3.6,0-6.5-2.7-6.5-6.1c0-3.4,2.9-6.1,6.5-6.1C53.6,4,56.5,6.7,56.5,10.1"/>
<path class="st4" d="M32.8,27.7c0,3.4-2.9,6.1-6.5,6.1c-3.6,0-6.5-2.7-6.5-6.1c0-3.4,2.9-6.1,6.5-6.1C29.9,21.7,32.8,24.4,32.8,27.7
	"/>
<path class="st3" d="M32.8,27.7c0,3.4-2.9,6.1-6.5,6.1c-3.6,0-6.5-2.7-6.5-6.1c0-3.4,2.9-6.1,6.5-6.1C29.9,21.7,32.8,24.4,32.8,27.7
	"/>
<path class="st1" d="M87.5,50.2l1.5-1l-15.5-22l1.4,5.1L87.5,50.2z"/>
<path class="st4" d="M79.5,27.7c0,3.4-2.9,6.1-6.5,6.1c-3.6,0-6.5-2.7-6.5-6.1c0-3.4,2.9-6.1,6.5-6.1C76.6,21.7,79.5,24.4,79.5,27.7
	"/>
<path class="st3" d="M79.5,27.7c0,3.4-2.9,6.1-6.5,6.1c-3.6,0-6.5-2.7-6.5-6.1c0-3.4,2.9-6.1,6.5-6.1C76.6,21.7,79.5,24.4,79.5,27.7
	"/>
<path class="st0" d="M49.7,95.3l1.3-1l24-19.1l1-0.8l-1.3-0.7l-2.1-1.1L71.4,72l-1,0.8L49.6,89.2L28.7,73.1l-1.1-0.8L26.4,73l-2,1.1
	l-1.3,0.7l1.1,0.8l24.3,18.7L49.7,95.3z M49.7,93.6L25.4,74.9l2-1.1l22.2,17.1l22-17.5l2.1,1.1L49.7,93.6z"/>
<path class="st0" d="M73.5,78.1l1.8-2.5l15.5-22l0.6-0.9l-0.9-0.6l-1.5-1l-0.9-0.6l-0.6,0.9L74.8,68.5L73.3,75L73.5,78.1z
	 M74.4,74.9l1.4-5.1L88.4,52l1.5,1L74.4,74.9z"/>
<path class="st0" d="M27,77.4l0.3-3.1L25.9,68L13.1,50.7l-0.6-0.9l-0.9,0.6l-1.5,1L9.1,52l0.6,0.9l15.5,22L27,77.4z M26.2,74.3
	l-15.5-22l1.5-1l12.6,17.9L26.2,74.3z"/>
<path class="st1" d="M27.5,73.8l-2,1.1l24.3,18.7l24-19.1l-2.1-1.1l-22,17.5L27.5,73.8z"/>
<path class="st1" d="M75.7,69.8l-1.4,5.1l15.5-22l-1.5-1L75.7,69.8z"/>
<path class="st2" d="M43.2,91.4c0-3.4,2.9-6.1,6.5-6.1c3.6,0,6.5,2.7,6.5,6.1c0,3.4-2.9,6.1-6.5,6.1C46.1,97.5,43.2,94.8,43.2,91.4"
	/>
<path class="st3" d="M43.2,91.4c0-3.4,2.9-6.1,6.5-6.1c3.6,0,6.5,2.7,6.5,6.1c0,3.4-2.9,6.1-6.5,6.1C46.1,97.5,43.2,94.8,43.2,91.4"
	/>
<path class="st4" d="M66.9,73.8c0-3.4,2.9-6.1,6.5-6.1c3.6,0,6.5,2.7,6.5,6.1c0,3.4-2.9,6.1-6.5,6.1C69.8,79.9,66.9,77.1,66.9,73.8"
	/>
<path class="st3" d="M66.9,73.8c0-3.4,2.9-6.1,6.5-6.1c3.6,0,6.5,2.7,6.5,6.1c0,3.4-2.9,6.1-6.5,6.1C69.8,79.9,66.9,77.1,66.9,73.8"
	/>
<path class="st1" d="M12.2,51.3l-1.5,1l15.5,22l-1.4-5.1L12.2,51.3z"/>
<path class="st4" d="M20.2,73.8c0-3.4,2.9-6.1,6.5-6.1c3.6,0,6.5,2.7,6.5,6.1c0,3.4-2.9,6.1-6.5,6.1C23.1,79.9,20.2,77.1,20.2,73.8"
	/>
<path class="st3" d="M20.2,73.8c0-3.4,2.9-6.1,6.5-6.1c3.6,0,6.5,2.7,6.5,6.1c0,3.4-2.9,6.1-6.5,6.1C23.1,79.9,20.2,77.1,20.2,73.8"
	/>
<g>
	<path class="st5" d="M41.2,45.6c-1.1,0-2.1-0.9-2.1-2.1V29.6c0-2.5,2-4.5,4.5-4.5c2.5,0,4.5,2,4.5,4.5v13.9c0,1.1-0.9,2.1-2.1,2.1
		H41.2z"/>
	<path class="st6" d="M43.7,24.4c-2.9,0-5.2,2.3-5.2,5.2v13.9c0,1.5,1.2,2.7,2.7,2.7h4.9c1.5,0,2.7-1.2,2.7-2.7V29.6
		C48.9,26.8,46.6,24.4,43.7,24.4 M43.7,25.8c2.1,0,3.9,1.7,3.9,3.9v13.9c0,0.8-0.6,1.4-1.4,1.4h-4.9c-0.8,0-1.4-0.6-1.4-1.4V29.6
		C39.8,27.5,41.6,25.8,43.7,25.8"/>
	<path class="st7" d="M44.7,43.4h-1.9c-0.6,0-1.1-0.5-1.1-1.1V31.5c0-1.1,0.9-2.1,2.1-2.1c1.1,0,2.1,0.9,2.1,2.1v10.7
		C45.8,42.9,45.3,43.4,44.7,43.4"/>
	<path class="st5" d="M53.4,45.6c-1.3,0-2.4-1.1-2.4-2.4V29.6c0-2.5,2-4.5,4.5-4.5c2.5,0,4.5,2,4.5,4.5v13.6c0,1.3-1.1,2.4-2.4,2.4
		H53.4z"/>
	<path class="st6" d="M55.6,24.4c-2.9,0-5.2,2.3-5.2,5.2v13.6c0,1.7,1.4,3,3,3h4.3c1.7,0,3-1.4,3-3V29.6
		C60.8,26.8,58.4,24.4,55.6,24.4 M55.6,25.8c2.1,0,3.9,1.7,3.9,3.9v13.6c0,0.9-0.8,1.7-1.7,1.7h-4.3c-0.9,0-1.7-0.8-1.7-1.7V29.6
		C51.7,27.5,53.4,25.8,55.6,25.8"/>
	<path class="st7" d="M56.5,43.4h-1.9c-0.6,0-1.1-0.5-1.1-1.1V31.5c0-1.1,0.9-2.1,2.1-2.1c1.1,0,2.1,0.9,2.1,2.1v10.7
		C57.6,42.9,57.1,43.4,56.5,43.4"/>
	<path class="st5" d="M65.3,64.8c2.9-0.9,5-3.6,5-6.7c0-3.5-2.2-6.5-5.3-7.6c-1.3-7.2-7.7-12.7-15.2-12.7h-1
		c-7.6,0-13.9,5.5-15.2,12.7c-3.1,1.2-5.3,4.2-5.3,7.6c0,3.2,2.1,5.8,5,6.7c0,0,11.5,3.1,15.8,3.1S65.3,64.8,65.3,64.8"/>
	<path class="st6" d="M57,54.3c-1.7,0-3-1.4-3-3c0-1.7,1.4-3,3-3c1.7,0,3,1.4,3,3C60,52.9,58.7,54.3,57,54.3 M41.7,54.3
		c-1.7,0-3-1.4-3-3c0-1.7,1.4-3,3-3c1.7,0,3,1.4,3,3C44.7,52.9,43.4,54.3,41.7,54.3 M57,46.8c-2.2,0-4,1.6-4.4,3.6
		c-2.4-0.8-5.2-0.4-6.6,0c-0.4-2-2.2-3.6-4.4-3.6c-2.4,0-4.4,2-4.4,4.4c0,2.4,2,4.4,4.4,4.4c2.2,0,4-1.6,4.4-3.6
		c1-0.3,4.2-1,6.6,0.1c0.4,2,2.2,3.5,4.3,3.5c2.4,0,4.4-2,4.4-4.4C61.4,48.8,59.4,46.8,57,46.8"/>
	<path class="st7" d="M49.2,54.7c0,0,1.8-0.1,1.9,0.9c0,0,0,1.6-1.8,1.6h-0.7c0,0-1.6-0.2-1.7-1.7C47,55.6,46.9,54.6,49.2,54.7"/>
	<path class="st6" d="M65.7,50c3.2,1.4,5.3,4.6,5.3,8.1c0,3.4-2.2,6.3-5.4,7.3l-0.2,0.1c-0.2,0.1-0.5,0.2-0.8,0.4L64.3,66
		c-0.8,0.3-1.8,0.7-2.8,1c-3.4,1-7.5,1.6-12.4,1.6c-4.8,0-8.9-0.6-12.2-1.6c-1.2-0.3-2.2-0.7-3-1.1c-0.4-0.2-0.7-0.4-0.9-0.5
		c-3.2-1-5.4-4-5.4-7.3c0-3.6,2.1-6.7,5.3-8.1c1.6-7.4,8.2-12.8,15.8-12.8h1C57.5,37.1,64.1,42.6,65.7,50z M65,64.3l0.1-0.1l0.3-0.1
		l0.2-0.1c2.5-0.9,4.2-3.3,4.2-5.9c0-3.1-1.9-5.9-4.8-7L64.5,51l-0.1-0.4c-1.3-7-7.4-12.1-14.6-12.1h-1c-7.1,0-13.3,5.2-14.6,12.1
		L34.2,51l-0.3,0.1C31,52.2,29,55,29,58.1c0,2.8,1.9,5.3,4.5,6.1l0.1,0l0.1,0.1l0.3,0.2c0.2,0.1,0.3,0.2,0.6,0.3
		c0.8,0.3,1.7,0.7,2.8,1c3.2,0.9,7.1,1.5,11.8,1.5c4.7,0,8.7-0.6,12-1.5c1.1-0.3,2.1-0.7,2.9-1c0.1,0,0.1,0,0.2-0.1l0.3-0.1l0.3-0.1
		L65,64.3z"/>
</g>
<path class="st8" d="M82.8,50.8c0,3.3,2.8,6,6.3,6c3.5,0.1,6.4-2.6,6.4-5.9c0-3.3-2.7-6-6.3-6C85.7,44.9,82.8,47.5,82.8,50.8"/>
<path class="st8" d="M16.9,50.9c0,3.4-2.9,6.1-6.5,6.1c-3.6,0-6.5-2.7-6.5-6.1c0-3.4,2.9-6.1,6.5-6.1C14,44.8,16.9,47.5,16.9,50.9"
	/>
<path class="st3" d="M16.9,50.9c0,3.4-2.9,6.1-6.5,6.1c-3.6,0-6.5-2.7-6.5-6.1c0-3.4,2.9-6.1,6.5-6.1C14,44.8,16.9,47.5,16.9,50.9"
	/>
<path class="st6" d="M89.3,57.5c-3.9,0-7-3-7-6.6c0-3.6,3.2-6.6,7-6.6c3.9,0,7,3,7,6.6C96.3,54.5,93.2,57.5,89.3,57.5z M89.3,45.3
	c-3.3,0-5.9,2.5-5.9,5.5c0,3.1,2.7,5.5,5.9,5.5c3.3,0,5.9-2.5,5.9-5.5C95.2,47.8,92.5,45.3,89.3,45.3z"/>
</svg>
