<svg width="24" height="24" viewBox="0 0 24 24" fill="none" xmlns="http://www.w3.org/2000/svg">
<rect width="24" height="24" rx="4" fill="white" fill-opacity="0.01"/>
<path d="M8.30602 11.4163L14.2164 5.50597C14.6244 5.09794 15.286 5.09794 15.694 5.50597C16.102 5.914 16.102 6.57554 15.694 6.98356L9.78361 12.8939V11.4163L15.694 17.3267C16.102 17.7347 16.102 18.3963 15.694 18.8043C15.286 19.2123 14.6244 19.2123 14.2164 18.8043L8.30602 12.8939C7.89799 12.4859 7.89799 11.8244 8.30602 11.4163Z" fill="black"/>
<mask id="mask0_120_1211" style="mask-type:alpha" maskUnits="userSpaceOnUse" x="8" y="5" width="8" height="15">
<path d="M8.30602 11.4163L14.2164 5.50597C14.6244 5.09794 15.286 5.09794 15.694 5.50597C16.102 5.914 16.102 6.57554 15.694 6.98356L9.78361 12.8939V11.4163L15.694 17.3267C16.102 17.7347 16.102 18.3963 15.694 18.8043C15.286 19.2123 14.6244 19.2123 14.2164 18.8043L8.30602 12.8939C7.89799 12.4859 7.89799 11.8244 8.30602 11.4163Z" fill="white"/>
</mask>
<g mask="url(#mask0_120_1211)">
<rect x="4" y="4" width="16" height="16" fill="#292A2C"/>
</g>
</svg>
