<svg width="24" height="24" viewBox="0 0 24 24" fill="none" xmlns="http://www.w3.org/2000/svg">
<rect width="24" height="24" rx="4" fill="white" fill-opacity="0.01"/>
<path d="M15.694 11.4163L9.78361 5.50597C9.37559 5.09794 8.71405 5.09794 8.30602 5.50597C7.89799 5.914 7.89799 6.57554 8.30602 6.98356L14.2164 12.8939V11.4163L8.30602 17.3267C7.89799 17.7347 7.89799 18.3963 8.30602 18.8043C8.71405 19.2123 9.37559 19.2123 9.78361 18.8043L15.694 12.8939C16.102 12.4859 16.102 11.8244 15.694 11.4163Z" fill="black"/>
<mask id="mask0_120_1205" style="mask-type:alpha" maskUnits="userSpaceOnUse" x="8" y="5" width="8" height="15">
<path d="M15.694 11.4163L9.78361 5.50597C9.37559 5.09794 8.71405 5.09794 8.30602 5.50597C7.89799 5.914 7.89799 6.57554 8.30602 6.98356L14.2164 12.8939V11.4163L8.30602 17.3267C7.89799 17.7347 7.89799 18.3963 8.30602 18.8043C8.71405 19.2123 9.37559 19.2123 9.78361 18.8043L15.694 12.8939C16.102 12.4859 16.102 11.8244 15.694 11.4163Z" fill="white"/>
</mask>
<g mask="url(#mask0_120_1205)">
<rect x="4" y="4" width="16" height="16" fill="#292A2C"/>
</g>
</svg>
