<svg xmlns="http://www.w3.org/2000/svg" viewBox="0 0 260 259" style="enable-background:new 0 0 260 259" xml:space="preserve"><path d="M176.8 140.7c-8.7-11.5-22.5-24.4-28.6-26.9-10.3-4.3-10.4-4.3-13.1 2.9-2.6 6.6-4.3 7.9-6.2 5-.6-1-3.5-1.3-7.2-.9l-6.3.6.7-5.3c.1-3.7.9-10.9.7-11.5-1.5-14.7 16.9-57.1 28.6-66.5 3.8-2.9 3.4-5.9-.6-5.9s-15.7 13.5-20.7 23.7c-5.3 11-11 27.8-14.5 42.7-1.6 7.1-2.6 9.5-3.1 7.2-.6-3.2-1-3.4-8.5-2.6-4.7.4-7.6.3-7.2-.6.6-.7 2.2-1.3 3.7-1.3 2.2 0 2.9-1.6 3.8-9.8 1.5-14-.1-29.8-4.6-46.6-4.3-16.2-5.6-19.4-9.3-21.3-3.5-1.8-9.3.6-8.2 3.5.4 1.2 1.5 2.2 2.2 2.2s2.4 3.7 3.7 8.2c1.9 6.6 2.2 12.8 1.6 31.3-.4 12.6-1 24.2-1.5 25.9s-.9 4.1-.9 5.4c-.1 1.6-1.3 2.6-2.9 2.6-3.2 0-11.9 6.8-11.9 9.3 0 1-.9 3.5-2.1 5.6-1.9 3.7-14 32.9-14.4 35.8-1.5 7.2-.1 19.5 2.2 23.4 2.6 3.8 8.8 5.3 10.6 2.4.4-.9 1.6-1.5 2.5-1.5s.4 1.3-1 2.9c-2.6 2.8-2.5 2.9 3.1 5.3 8.8 3.7 20.7 2.1 34.7-4.8 6.3-3.2 11.5-5.3 11.5-4.7 0 1.8-9 6.6-18.7 10.1-10.4 3.8-10.4 4.3-.6 14 6.6 6.3 7.6 11 3.7 16.6-2.1 2.9-2.1 3.4.1 4.1 1.3.6 5.7.6 9.8.1 5.4-.7 8.1-1.9 9.8-4.3 4.8-6.9 4.8-8.2-1-10.1-2.9-.9-7.1-3.1-8.8-4.8-4-3.4-8.4-11.2-6.6-11.2.7 0 2.5 2.2 4 5 1.6 3.1 4.6 5.7 7.3 6.8 2.5.9 5.7 2.4 7.3 3.2 2.5 1.3 2.6 1 2.1-3.1-.3-2.5-.1-4.6.6-4.6 1.2 0 1.8 5.3 1.2 11-.1 1.6-1.8 5.3-3.8 8.1-3.2 4.7-3.4 5.3-1 6.9 3.7 2.8 7.8 2.2 14.4-1.8 3.2-2.1 7.6-3.7 10-3.7 2.2 0 4-.6 4-1.3s1-2.4 2.2-3.5c1.9-2.1 1.8-3.2-1.6-10.9-5.3-11.6-4.6-23.4 1.6-29.8 2.4-2.5 5.3-4.4 6.5-4.4 1.3 0 .3 1.3-2.5 3.2-5.6 4-8.4 12.2-6.9 20.1 1.5 7.6 6.5 19 9 19.8 3.5 1.3 2.2 3.4-1.6 2.6-2.9-.4-3.7 0-3.7 2.5 0 1.6 1.6 4.1 3.5 5.3 8.5 5.6 23.4 3.7 30.6-4 1.5-1.8 4.6-6.9 5-8.5.4-2.1 1.9-9.1 3.2-15.9 1.2-5.7.3-15.3.3-17.2-.1-6.6-8.7-26-16.2-36zm-69.7 18c-4.1 0-5.1-7.9-1.5-11.9 2.6-2.9 6-2.2 6.9 1.3.8 3.4-2.9 10.6-5.4 10.6z" style="fill:#ccc"/><path d="M200.6 150.9c-1-1.2-8.2-11-12.6-5.1-2.4 3.1-1.9 4.3 2.1 14.4 2.4 6 5 10.9 5.7 10.7.3-.1.6 0 .7.1 1.8-2.1 4.6-4.4 5.7-5.3 2.1-1.8 1-6.9 1-7.5 0-1.3-1.5-6-2.6-7.3zm-74.2-76.7c-2.8 7.2-6 18.2-7.1 24.2-.4 2.8-1 10.6-1.3 15.9-.1 4.3.4 4.7 4.3 4.7 2.4 0 5.3.4 6.5.9 2.8 1 6.2-6.3 13.5-28.8 7.1-22 12-54.4 8.4-54.4-4.6 0-17.7 20.2-24.3 37.5zm-51.9 27.2c4.6-.1 5.4-2.9 6.9-21.4 1.8-21.4.7-38.6-2.6-45.7-3.2-7.1-4.6-7.2-7.3-.9-3.8 8.2-4.3 36.3-1.2 54.1 1.4 7.8 3.2 13.9 4.2 13.9z" style="fill:#fff8bf"/><path d="M105.7 146.8c-3.7 4-2.6 11.9 1.5 11.9 2.5 0 6.2-7.2 5.4-10.6-.9-3.5-4.3-4.3-6.9-1.3z" style="fill:#141414"/><ellipse cx="108" cy="149.4" rx="1.6" ry="2.4" style="fill:#fff"/></svg>